<svg class="border shadow-md" viewBox="0 0 1344.64 756.36" xmlns="http://www.w3.org/2000/svg" preserveAspectRatio="none"
  style="width: 1344.64px; height: 756.36px;">
  <rect class="bg" id="bg" x="0" y="0" width="1344.64" height="756.36" fill="#ffffff"></rect>
  <g transform="rotate(0 672.32 378.18)">
    <path d="M -514.88 -45.64 S -357.00 -83.45
            0.00 -45.64 247.44 -83.45
            514.88 -45.64 525.76 -83.45
            1029.76 -45.64 1149.64 -83.45
            1544.64 -45.64 1792.08 -83.45
            2059.52 -45.64 h 110 V 956.36 H -514.88 Z" fill="#B10000" id="-1"></path>
    <path d="M -514.88 30.00 S -267.44 -25.00
            0.00 30.00 247.44 -7.82
            514.88 30.00 762.32 -7.82
            1029.76 30.00 1129.64 -41.00
            1544.64 30.00 1668.52 -15.00
            2059.52 30.00 h 110 V 956.36 H -514.88 Z" fill="#a50000" id="0"></path>
    <path d="M -514.88 105.64 S -267.44 53.64
            0.00 105.64 247.44 46.64
            514.88 105.64 580.76 67.82
            1029.76 105.64 1054.64 67.82
            1544.64 105.64 1792.08 64.64
            2059.52 105.64 h 110 V 956.36 H -514.88 Z" fill="#990000" id="1"></path>
    <path d="M -514.88 181.27 S -267.44 128.27
            0.00 181.27 247.44 115.27
            514.88 181.27 762.32 124.27
            1029.76 181.27 1269.64 125.27
            1544.64 181.27 1636.52 120.27
            2059.52 181.27 h 110 V 956.36 H -514.88 Z" fill="#8d0000" id="2"></path>
    <path d="M -514.88 256.91 S -321.00 219.09
            0.00 256.91 247.44 219.09
            514.88 256.91 734.76 183.91
            1029.76 256.91 1277.20 219.09
            1544.64 256.91 1693.52 219.09
            2059.52 256.91 h 110 V 956.36 H -514.88 Z" fill="#810000" id="3"></path>
    <path d="M -514.88 332.54 S -267.44 294.73
            0.00 332.54 123.88 294.73
            514.88 332.54 612.76 294.73
            1029.76 332.54 1277.20 294.73
            1544.64 332.54 1792.08 294.73
            2059.52 332.54 h 110 V 956.36 H -514.88 Z" fill="#750000" id="4"></path>
    <path d="M -514.88 408.18 S -267.44 342.18
            0.00 408.18 136.88 368.18
            514.88 408.18 640.76 358.18
            1029.76 408.18 1277.20 370.36
            1544.64 408.18 1792.08 370.36
            2059.52 408.18 h 110 V 956.36 H -514.88 Z" fill="#690000" id="5"></path>
    <path d="M -514.88 483.82 S -267.44 411.82
            0.00 483.82 247.44 435.82
            514.88 483.82 679.76 429.82
            1029.76 483.82 1277.20 413.82
            1544.64 483.82 1619.52 446.00
            2059.52 483.82 h 110 V 956.36 H -514.88 Z" fill="#5d0000" id="6"></path>
    <path d="M -514.88 559.45 S -419.00 515.45
            0.00 559.45 247.44 516.45
            514.88 559.45 762.32 521.63
            1029.76 559.45 1277.20 521.63
            1544.64 559.45 1763.52 521.63
            2059.52 559.45 h 110 V 956.36 H -514.88 Z" fill="#510000" id="7"></path>
    <path d="M -514.88 635.09 S -267.44 571.09
            0.00 635.09 247.44 574.09
            514.88 635.09 762.32 567.09
            1029.76 635.09 1123.64 597.27
            1544.64 635.09 1557.52 567.09
            2059.52 635.09 h 110 V 956.36 H -514.88 Z" fill="#450000" id="8"></path>
    <path d="M -514.88 710.72 S -267.44 672.91
            0.00 710.72 95.88 672.91
            514.88 710.72 762.32 646.72
            1029.76 710.72 1216.64 652.72
            1544.64 710.72 1792.08 672.91
            2059.52 710.72 h 110 V 956.36 H -514.88 Z" fill="#390000" id="9"></path>
  </g>
</svg>